<?xml version="1.0" encoding="utf-8"?>
<!-- Generator: Adobe Illustrator 16.0.0, SVG Export Plug-In . SVG Version: 6.00 Build 0)  -->
<!DOCTYPE svg PUBLIC "-//W3C//DTD SVG 1.1//EN" "http://www.w3.org/Graphics/SVG/1.1/DTD/svg11.dtd">
<svg version="1.1" xmlns="http://www.w3.org/2000/svg" xmlns:xlink="http://www.w3.org/1999/xlink" x="0px" y="0px"
	 width="900.285px" height="506.412px" viewBox="175.83 308.297 900.285 506.412"
	 enable-background="new 175.83 308.297 900.285 506.412" xml:space="preserve">
<g id="Lijnen">
	<path fill="#FFFFFF" d="M1074.76,341.279l-13.5,17.993h-12.461c-0.039,0-0.08,0.006-0.119,0.007
		c-0.053,0.001-0.105,0.006-0.158,0.009c-0.213,0.013-0.424,0.037-0.631,0.074c-0.051,0.009-0.104,0.016-0.156,0.027
		c-0.025,0.005-0.053,0.009-0.08,0.015c-0.258,0.059-0.508,0.141-0.752,0.238c-0.031,0.013-0.064,0.021-0.096,0.034
		c-0.043,0.018-0.084,0.042-0.127,0.062c-0.25,0.113-0.494,0.241-0.723,0.392c-0.004,0.005-0.012,0.008-0.018,0.011
		c-0.027,0.019-0.055,0.044-0.084,0.063c-0.227,0.158-0.439,0.335-0.639,0.528c-0.02,0.018-0.041,0.03-0.061,0.049l-18.426,18.437
		l-9.275-0.55l-7.293-26.746l-5.418-19.871l-0.855-3.136l2.291-20.618h-0.001h-5.178H1001h-0.002h-0.001h-2.286h-0.004h-2.891
		h-0.004l-1.506,13.55l-28.697-12.309c-1.15-0.492-2.455-0.558-3.66-0.151l-12.797,4.265l-8.919-5.354h-0.001h-10.004h-0.007
		h-10.004h-0.004l25.67,15.41c1.293,0.779,2.852,0.964,4.28,0.467l13.184-4.396l30.998,13.292l2.809,10.301l0.443,1.626l1.039,3.812
		l0.376,1.376l7.589,27.848l-63.083-3.708h-10.027c-0.021,0-0.041,0.003-0.061,0.006c-0.036,0.003-0.071,0.007-0.108,0.009
		c-0.154,0.005-0.308,0.018-0.459,0.035c-0.029,0.004-0.058,0.009-0.086,0.013c-0.029,0.004-0.059,0.008-0.088,0.013
		c0.058-0.009,0.116-0.019,0.173-0.027c-0.1,0.014-0.199,0.023-0.298,0.042c-0.048,0.01-0.096,0.017-0.144,0.025
		c-0.141,0.029-0.275,0.068-0.412,0.109c0.04-0.013,0.082-0.021,0.123-0.03c-0.02,0.006-0.041,0.01-0.061,0.016
		c-0.021,0.005-0.042,0.009-0.062,0.015c-0.084,0.024-0.166,0.053-0.249,0.083c-0.025,0.008-0.048,0.02-0.073,0.029
		c-0.001,0-0.002,0-0.004,0.001c-0.105,0.04-0.209,0.083-0.312,0.13c-0.001,0-0.002,0.001-0.004,0.002
		c-0.044,0.021-0.091,0.035-0.135,0.057c-0.066,0.032-0.132,0.069-0.197,0.104c-0.061,0.033-0.119,0.073-0.179,0.109
		c-0.002,0.001-0.005,0.002-0.007,0.004c-0.062,0.037-0.124,0.074-0.185,0.113c-0.004,0.003-0.009,0.004-0.014,0.007
		c-0.01,0.007-0.021,0.012-0.03,0.019c-0.001,0.001-0.003,0.003-0.004,0.004c-0.011,0.007-0.022,0.013-0.032,0.02
		c0.01-0.007,0.021-0.012,0.03-0.019c0,0-0.001,0.001-0.001,0.001c-0.01,0.006-0.019,0.011-0.028,0.017
		c-0.017,0.011-0.034,0.019-0.05,0.031c-0.062,0.044-0.121,0.093-0.182,0.14c-0.064,0.049-0.124,0.104-0.184,0.156
		c-0.034,0.027-0.067,0.056-0.101,0.084c0.093-0.083,0.186-0.165,0.285-0.241c-0.138,0.108-0.275,0.216-0.403,0.337
		c-0.007,0.005-0.014,0.01-0.02,0.016c-0.002,0.002-0.003,0.004-0.005,0.006c-0.011,0.01-0.022,0.02-0.033,0.029
		c-0.034,0.034-0.062,0.071-0.097,0.106c-0.01,0.01-0.022,0.016-0.032,0.026c-0.055,0.057-0.102,0.119-0.153,0.179
		c0.013-0.015,0.026-0.028,0.04-0.043c-0.009,0.011-0.018,0.02-0.026,0.03c-0.004,0.005-0.008,0.009-0.012,0.014
		c-0.078,0.089-0.156,0.176-0.228,0.27c0.009-0.012,0.021-0.023,0.03-0.035c-0.01,0.013-0.021,0.023-0.03,0.036
		c-0.004,0.006-0.008,0.011-0.012,0.017c0.004-0.006,0.007-0.012,0.011-0.017c-0.021,0.027-0.041,0.057-0.062,0.086
		c-0.002,0.002-0.004,0.004-0.006,0.007c-0.035,0.049-0.064,0.101-0.099,0.149c-0.07,0.104-0.137,0.208-0.198,0.316
		c0.014-0.024,0.03-0.046,0.045-0.07c-0.009,0.015-0.019,0.028-0.027,0.043c-0.006,0.009-0.012,0.018-0.018,0.027
		c-0.024,0.045-0.054,0.087-0.079,0.133c-0.021,0.039-0.037,0.081-0.057,0.121c-0.023,0.047-0.051,0.093-0.073,0.142
		c-0.018,0.04-0.031,0.082-0.048,0.122c-0.05,0.118-0.101,0.236-0.144,0.358c-0.002,0.005-0.005,0.01-0.007,0.016
		c0,0.001-0.001,0.002-0.001,0.004c0,0,0,0,0,0.001c-0.002,0.006-0.006,0.014-0.008,0.021l-5.009,15.047
		c-0.428,1.293-0.327,2.705,0.281,3.927l8.179,16.365l0.143,1.275l0.92,8.265l-42.513,42.527l-26.431,8.811l-3.012-2.152v-0.019
		h-0.001v0.019l-28.915-20.66l-3.175-6.35l13.591-22.655c1.084-1.814,0.953-4.106-0.332-5.782c-0.162-0.21-0.337-0.405-0.524-0.585
		c-1.31-1.256-3.201-1.743-4.976-1.237l-30.356,8.674l-0.551-1.656l-2.762-8.309l-3.557-21.342l0.916-5.5l1.322-7.922l8.748-17.518
		l2.185-4.374c0.003-0.005,0.004-0.011,0.007-0.017c0.017-0.038,0.031-0.078,0.049-0.116c0.053-0.114,0.101-0.229,0.145-0.345
		c0.029-0.078,0.058-0.155,0.083-0.234c0.041-0.124,0.074-0.249,0.105-0.376c0.019-0.081,0.039-0.16,0.055-0.241
		c0.022-0.118,0.038-0.237,0.053-0.358c0.012-0.098,0.025-0.192,0.031-0.289c0.005-0.09,0.004-0.183,0.005-0.273
		c0.001-0.098,0.009-0.195,0.005-0.294l0.013-0.022l4.267-7.116c0.629-1.05,0.865-2.287,0.663-3.494l-1.882-11.293l-3.987-23.935
		h-0.001h-0.001h-2.351h-2.869h-2.294h-0.001h-2.925h-0.001h-2.232h-0.001h0l2.816,39.374l-53.274-13.314
		c-0.356-0.09-0.726-0.142-1.098-0.156l-3.75-0.109l-3.868-0.911l-16.418-3.868l7.321,1.726l-7.321-1.725
		c-0.39-0.089-0.787-0.136-1.184-0.136h-0.001H583.723l3.795-20.88h-0.003h-5.232h-5.229h0l-4.529,24.919l-0.005,0.025l-0.012,0.067
		l-0.006,0.027l-0.013,0.064l-0.001,0.007l-0.018,0.087l-24.938,119.749l-0.002,0.005l0,0.003l0,0.001l-0.372,0.993l-14.492,38.679
		l0.004-0.01l-0.002,0.007l-0.002,0.004l-0.001,0.002l-0.005,0.014l0.006-0.018l-33.485,76.57l-36.293-4.545
		c-0.748-0.079-1.519-0.009-2.243,0.221c-0.241,0.076-0.478,0.171-0.706,0.283l-0.025,0.014l-0.18,0.09
		c-0.046-0.025-0.094-0.041-0.14-0.066c-0.118-0.061-0.237-0.117-0.359-0.168c-0.102-0.043-0.204-0.082-0.308-0.117
		c-0.128-0.045-0.255-0.086-0.385-0.121c-0.102-0.025-0.203-0.047-0.307-0.066c-0.134-0.025-0.269-0.051-0.404-0.066
		c-0.102-0.012-0.201-0.016-0.304-0.021c-0.138-0.01-0.274-0.016-0.413-0.014c-0.104,0.002-0.208,0.016-0.312,0.023
		c-0.133,0.012-0.267,0.02-0.399,0.043c-0.113,0.018-0.226,0.049-0.339,0.074c-0.12,0.027-0.24,0.051-0.358,0.088
		c-0.137,0.043-0.27,0.1-0.402,0.154c-0.073,0.03-0.147,0.057-0.221,0.088c-0.018,0.008-0.036,0.013-0.054,0.021
		c-0.222,0.105-0.438,0.227-0.646,0.365l-15.041,10.033c-2.263,1.51-2.963,4.516-1.6,6.869c0,0,0,0,0,0c0,0.001,0,0.001,0,0.002
		c0.153,0.264,0.333,0.502,0.522,0.727c0.049,0.059,0.099,0.115,0.151,0.169c0,0.001,0,0.001,0,0.001
		c0.173,0.189,0.356,0.363,0.553,0.521c0.029,0.023,0.057,0.051,0.086,0.074c0.231,0.178,0.479,0.334,0.737,0.469
		c0.043,0.023,0.088,0.043,0.132,0.064c0.236,0.115,0.479,0.215,0.73,0.293c0.032,0.01,0.063,0.021,0.097,0.031
		c0.292,0.086,0.592,0.148,0.896,0.18c0.002,0,0.004,0,0.006,0c0.183,0.02,0.364,0.035,0.549,0.035c0.131,0,0.26-0.012,0.39-0.021
		c0.008,0,0.016,0,0.022,0c0.307-0.025,0.612-0.08,0.915-0.16c0.029-0.008,0.059-0.018,0.086-0.025
		c0.01-0.003,0.021-0.008,0.031-0.012c0.002-0.001,0.004-0.002,0.006-0.002c0.002-0.001,0.004-0.002,0.006-0.002
		c0.286-0.084,0.567-0.183,0.843-0.32l14.513-7.26h0.002l-0.002-0.002h0l10.404,6.939c0.845,0.562,1.841,0.865,2.855,0.865h25.07
		c0.389,0,0.773-0.06,1.152-0.147c0.13-0.03,0.262-0.051,0.389-0.091l63.488-19.849c0.004,0.106,0.009,0.206,0.015,0.313
		c0.221,2.668,2.454,4.727,5.134,4.727h0.002h12.283l4.979,7.473l-44.239,17.711c-0.2,0.086-0.401,0.176-0.591,0.287
		c-0.131-0.073-0.269-0.129-0.405-0.188c-0.068-0.029-0.133-0.066-0.202-0.094c-0.152-0.061-0.309-0.102-0.465-0.146
		c-0.078-0.022-0.154-0.054-0.232-0.073c-0.001,0-0.003-0.001-0.004-0.001c-0.097-0.023-0.193-0.038-0.291-0.057
		c-0.021-0.002-0.041-0.005-0.061-0.009c-0.178-0.031-0.355-0.067-0.536-0.078c0,0,0,0-0.001,0c-1.26-0.08-2.533,0.307-3.555,1.143
		c-0.744,0.604-1.287,1.382-1.599,2.241l-1.167-1.462c-0.979-1.221-2.458-1.932-4.021-1.932h-0.001h-55.143h-0.001
		c-0.477,0-0.956,0.066-1.413,0.195l-35.096,10.023c-2.469,0.711-4.043,3.125-3.687,5.668c0.356,2.545,2.529,4.436,5.1,4.436h0.001
		h31.073l13.915,55.676v18.645l-38.794,125.055h0.001h0.026h0h5.364h0.001h5.391h0.002l36.634-118.092l41.579,10.403l13.305,3.331
		l29.09,14.548L632.946,754l4.672,37.391c0.212,1.711,1.269,3.197,2.807,3.967l0.438,0.22l-0.439-0.22l2.19,1.097v0.001l0.001,0.001
		l0.067,0.3l0.025,0.115c0.059,0.268,0.145,0.521,0.241,0.77c0.028,0.072,0.062,0.143,0.094,0.213
		c0.081,0.182,0.171,0.355,0.271,0.525c0.037,0.062,0.073,0.125,0.112,0.188c0.094,0.143,0.203,0.275,0.309,0.409
		c0.054,0.068,0.099,0.144,0.156,0.208c0,0,0,0.001,0.001,0.002c0.177,0.199,0.373,0.379,0.578,0.547
		c0.045,0.037,0.093,0.072,0.14,0.105c0.164,0.125,0.335,0.242,0.514,0.348c0.059,0.035,0.117,0.068,0.178,0.102
		c0.21,0.113,0.428,0.215,0.653,0.297c0.021,0.01,0.042,0.02,0.062,0.027c0.003,0.001,0.006,0.002,0.009,0.002
		c0.004,0.002,0.008,0.004,0.012,0.005c-0.007-0.001-0.014-0.003-0.02-0.005c0.012,0.004,0.023,0.01,0.035,0.016l-3.907,14.08h0.001
		h0.001h5.341h0.001h5.343h0h0h0l3.204-11.543l3.553,1.776l0.888,0.444c0.062,0.031,0.13,0.047,0.195,0.075
		c0.205,0.089,0.41,0.175,0.62,0.239c0.002,0,0.004,0.002,0.006,0.002c0.055,0.017,0.11,0.032,0.165,0.048
		c0.01,0.003,0.021,0.007,0.031,0.01c0.005,0.001,0.01,0.003,0.015,0.005c0.003,0,0.005,0.001,0.008,0.002c0,0,0,0,0,0
		c0.002,0.001,0.004,0.001,0.006,0.002c0,0,0,0,0.001,0h0c0,0,0.001,0,0.002,0.001c0.027,0.007,0.055,0.018,0.083,0.022
		c0.101,0.023,0.2,0.035,0.301,0.053c0.093,0.016,0.186,0.037,0.279,0.049c0.028,0.004,0.058,0.002,0.086,0.006
		c0.11,0.01,0.221,0.014,0.33,0.018c0,0,0,0-0.001,0c0.001,0,0.003,0,0.005,0c0.002,0,0.005,0,0.007,0.001
		c0.027,0.001,0.053,0.003,0.08,0.005c-0.026-0.002-0.052-0.004-0.078-0.005c0.001,0,0.002,0,0.004,0
		c0.052,0.003,0.103,0.011,0.155,0.011c0,0,0.001,0,0.002,0c0.009,0,0.018-0.002,0.025-0.002c0.105,0,0.209-0.016,0.314-0.021
		c0.139-0.01,0.277-0.016,0.416-0.037c0.001,0,0.002,0,0.003,0c0.005-0.002,0.011-0.004,0.016-0.004
		c0.014-0.002,0.027-0.007,0.04-0.01c0.002,0,0.005-0.001,0.007-0.001c-0.016,0.002-0.031,0.008-0.046,0.011
		c-0.006,0-0.011,0.002-0.016,0.004c0.093-0.014,0.185-0.039,0.276-0.059c0.161-0.033,0.322-0.068,0.481-0.119
		c0.037-0.012,0.076-0.014,0.113-0.027c0.046-0.016,0.086-0.043,0.131-0.059c-0.008,0.003-0.017,0.006-0.025,0.009
		c0.001-0.001,0.002-0.001,0.004-0.002c0.006-0.002,0.013-0.004,0.02-0.007c0.228-0.084,0.447-0.182,0.66-0.295
		c0.061-0.033,0.125-0.061,0.185-0.096c0.25-0.146,0.488-0.314,0.712-0.504c0.059-0.049,0.112-0.104,0.169-0.156
		c0.168-0.156,0.324-0.32,0.47-0.496c0.059-0.07,0.116-0.139,0.17-0.211c0.18-0.242,0.346-0.494,0.481-0.766l0.006-0.013
		c-0.002,0.004-0.003,0.009-0.005,0.013l32.782-65.605l21.019,10.512l21.661,10.834h-0.001v1.832c0,0.799,0.188,1.588,0.543,2.303
		l5.015,10.023c0.01,0.016,0.021,0.031,0.029,0.049c0.015,0.027,0.031,0.054,0.047,0.08c0.022,0.036,0.044,0.073,0.066,0.111
		c0.075,0.129,0.145,0.262,0.229,0.385c0.021,0.029,0.042,0.053,0.064,0.081c0,0.001,0,0.001,0,0.001c0,0.001,0,0.001,0.001,0.002
		c0.052,0.072,0.109,0.135,0.165,0.205c0,0.001,0.001,0.001,0.001,0.001c0,0.001,0.001,0.001,0.001,0.002
		c0.001,0.001,0.002,0.003,0.003,0.004c0.001,0.001,0.002,0.003,0.004,0.005c0,0.001,0.001,0.002,0.002,0.002
		c0.032,0.04,0.063,0.081,0.095,0.119c0.024,0.027,0.046,0.056,0.068,0.084c0.014,0.018,0.027,0.036,0.042,0.053
		c0.019,0.02,0.038,0.037,0.058,0.056c0.019,0.018,0.037,0.035,0.055,0.054c0.035,0.035,0.073,0.068,0.11,0.103
		c0.033,0.031,0.066,0.063,0.1,0.095c0.005,0.005,0.011,0.009,0.016,0.014c0.016,0.015,0.031,0.03,0.046,0.045
		c0.045,0.039,0.085,0.084,0.131,0.123c0.047,0.039,0.099,0.068,0.146,0.105c0.077,0.059,0.156,0.115,0.236,0.17
		c0.007,0.004,0.015,0.01,0.021,0.016c0.006,0.004,0.013,0.008,0.02,0.012c0.052,0.036,0.1,0.076,0.154,0.109
		c0.063,0.039,0.129,0.069,0.195,0.104c0.002,0.001,0.004,0.003,0.006,0.004c0.029,0.017,0.058,0.03,0.087,0.046
		c0.062,0.033,0.125,0.067,0.189,0.099c0.051,0.023,0.099,0.053,0.149,0.076c0.078,0.034,0.158,0.058,0.236,0.085
		c0.001,0.001,0.003,0.001,0.004,0.002c0.01,0.004,0.02,0.009,0.03,0.013c0.014,0.004,0.029,0.01,0.043,0.016
		c0.085,0.031,0.169,0.064,0.255,0.092c0.003,0.001,0.007,0.002,0.011,0.003c0.007,0.002,0.014,0.004,0.021,0.007
		c0.021,0.008,0.042,0.016,0.064,0.023c0.094,0.025,0.191,0.041,0.288,0.06c0.002,0,0.005,0.001,0.007,0.001
		c0.026,0.006,0.051,0.015,0.078,0.02c0.089,0.02,0.178,0.043,0.268,0.057c0.006,0.001,0.012,0.001,0.019,0.002
		c0.009,0.002,0.018,0.004,0.027,0.005c0.002,0,0.004,0.001,0.005,0.001c0.117,0.016,0.236,0.016,0.353,0.024
		c0.12,0.009,0.237,0.028,0.359,0.028c0.013,0,0.027-0.004,0.04-0.004h10.985l2.892,11.602l-25.565,27.281h0.001h0h3.301h0.001
		h3.754h0.001h2.248h0.001h4.807h0h1.198h0.001l0.425-0.709l19.606-19.605c0.021-0.021,0.037-0.045,0.057-0.064
		c-0.004,0.004-0.009,0.009-0.013,0.013c0.004-0.005,0.009-0.01,0.013-0.015c0.051-0.053,0.106-0.102,0.155-0.156l15.379-17.312
		l24.13-27.163l52.499-28.65l28.427,8.127l-18.586,85.535h0h0h5.27h0h5.27h0.001h0l18.099-83.273l25.397,4.234l74.97,9.996
		l68.334,15.627v-5.281v-5.269v-0.01v-0.001l-66.518-15.209L869.96,710.576l0.002,0.002h-0.001h0l-0.001-0.002h-0.001
		l-28.735-14.377l-0.002-0.001l-0.002-0.003l0.005,0.002l-75.789-71.076l41.351-41.387c0.494-0.494,0.881-1.082,1.144-1.73
		l2.87-7.176l-0.003,0.004l0.002-0.006h0.001v-0.001l1.181-1.3c0.63-0.695,1.059-1.545,1.239-2.459l0.91-4.57v-0.001l3.832-9.571
		c0.24-0.609,0.368-1.258,0.368-1.91v-0.002v-8.633l16.709-28.652v33.167h0.001v-33.169l16.709-28.652h0l39.779-13.269l3.49-1.163
		c0.313-0.104,0.604-0.241,0.882-0.396c0.034-0.02,0.07-0.037,0.104-0.056c0.258-0.152,0.498-0.327,0.721-0.519
		c0.044-0.037,0.086-0.075,0.129-0.114c0.002-0.002,0.003-0.004,0.005-0.006c0.056-0.051,0.116-0.098,0.168-0.15l45.127-45.141
		c0.022-0.023,0.041-0.047,0.062-0.07c0.003-0.002,0.005-0.005,0.008-0.007c0.025-0.026,0.048-0.056,0.073-0.082
		c0.047-0.052,0.087-0.109,0.129-0.165c0.047-0.056,0.091-0.113,0.136-0.17c0.04-0.051,0.083-0.1,0.122-0.153
		c0.02-0.024,0.042-0.047,0.06-0.073c0.023-0.034,0.049-0.065,0.071-0.1c0,0,0-0.001,0.001-0.001c0-0.001,0.001-0.001,0.001-0.002
		c0.01-0.016,0.021-0.029,0.031-0.044c0.149-0.233,0.274-0.479,0.383-0.731c0.013-0.03,0.031-0.058,0.043-0.088
		c0.013-0.029,0.021-0.059,0.031-0.089c0.001-0.002,0.001-0.004,0.002-0.006c0.04-0.101,0.062-0.209,0.094-0.313
		c0.052-0.162,0.111-0.321,0.146-0.488c0.003-0.018,0.011-0.033,0.015-0.051c0.006-0.032,0.005-0.068,0.012-0.103
		c0.002-0.011,0.001-0.023,0.003-0.035c0.047-0.269,0.078-0.544,0.081-0.826c0-0.014,0.004-0.027,0.004-0.041v-0.002
		c0,0,0,0,0-0.001s0-0.001,0-0.002v-10.042c0-0.799-0.187-1.588-0.545-2.309l-1.023-2.047l-1.977-17.758l-0.092-0.828l-0.736-6.637
		l74.095,4.637c0.066,0.005,0.143,0.005,0.211,0.005c0.006,0,0.012-0.001,0.016-0.001l0.092,0.006h9.889v29.956v0.001
		c0,1.017,0.303,2.013,0.865,2.856l9.162,13.748v37.007l-9.162,13.74c-0.603,0.901-0.898,1.961-0.862,3.026
		c0.012,0.355,0.061,0.711,0.147,1.062c0.344,1.403,1.264,2.596,2.535,3.288l17.841,9.736l31.999,17.464v-0.001v-0.001v-0.001
		v-5.865v-5.865l-39.967-21.813l6.902-10.354c0.562-0.845,0.867-1.841,0.867-2.856v-40.126c0-1.016-0.305-2.01-0.867-2.857
		l-9.16-13.749v-28.396c0.105-0.002,0.207-0.017,0.31-0.026c0.003,0,0.005,0,0.007,0c0.064-0.006,0.133-0.009,0.197-0.017
		c0.129-0.017,0.258-0.042,0.385-0.068c0.064-0.014,0.133-0.022,0.197-0.04c0.125-0.03,0.244-0.07,0.365-0.108
		c0.066-0.021,0.133-0.039,0.199-0.063c0.115-0.042,0.227-0.095,0.338-0.146c0.066-0.03,0.135-0.057,0.201-0.09
		c0.105-0.054,0.207-0.116,0.311-0.179c0.064-0.039,0.135-0.074,0.197-0.116c0.1-0.064,0.193-0.14,0.287-0.213
		c0.061-0.046,0.125-0.088,0.184-0.137c0.096-0.08,0.186-0.169,0.275-0.256c0.051-0.05,0.105-0.096,0.156-0.148
		c0.137-0.143,0.266-0.294,0.385-0.454l13.494-18.009h12.457c1.619,0,3.146-0.764,4.117-2.062l8.162-10.883v-0.002v-8.577v0v-8.017
		v-0.001C1075.597,340.362,1075.134,340.779,1074.76,341.279z M544.041,629.068c0.042,0.037,0.083,0.076,0.126,0.111
		c0.191,0.158,0.394,0.303,0.603,0.432c0,0,0,0,0.001,0c0,0.001,0.001,0.002,0.002,0.002c0.146,0.09,0.3,0.16,0.453,0.236
		c0.021,0.008,0.039,0.018,0.061,0.027c0.005,0.002,0.01,0.004,0.015,0.006c-0.006-0.002-0.013-0.003-0.019-0.006
		c0.348,0.163,0.71,0.291,1.082,0.377c0.091,0.021,0.184,0.032,0.276,0.048c0.096,0.017,0.19,0.038,0.287,0.05
		c0.088,0.01,0.178,0.01,0.268,0.015c0.101,0.006,0.2,0.017,0.301,0.017c0.001,0,0.001,0,0.002,0
		c0.029,0.002,0.059,0.008,0.089,0.008c0,0,0,0,0.001,0s0.001,0,0.002,0c0.054-0.006,0.104-0.021,0.158-0.027
		c0.007,0,0.015-0.002,0.022-0.002c-0.009,0.001-0.017,0.003-0.025,0.004c0.595-0.031,1.191-0.155,1.761-0.395
		c0.191-0.08,0.378-0.173,0.562-0.279c0.09-0.053,0.165-0.121,0.251-0.18c1.51-0.893,2.516-2.389,2.516-4.271
		c0-1.178-0.398-2.262-1.062-3.133l-3.384-8.463l16.275,10.855c0.009,0.006,0.019,0.009,0.028,0.015
		c0.008,0.005,0.016,0.009,0.023,0.014c-0.016-0.01-0.034-0.016-0.05-0.026c0.259,0.174,0.524,0.309,0.794,0.424
		c-0.006-0.003-0.011-0.006-0.017-0.009c0.006,0.003,0.012,0.006,0.019,0.009c0.122,0.053,0.247,0.092,0.372,0.135
		c0.071,0.023,0.143,0.043,0.214,0.064c0.06,0.019,0.119,0.039,0.179,0.055c0.178,0.043,0.358,0.082,0.542,0.109
		c0.018,0.003,0.035,0.003,0.053,0.006c0.089,0.011,0.18,0.02,0.271,0.029c0.143,0.012,0.285,0.033,0.428,0.033
		c0.005,0,0.01,0.001,0.015,0.001c-0.005,0-0.011,0.001-0.017,0.001c0.039,0.002,0.076,0.008,0.115,0.008
		c1.209,0.03,2.38-0.425,3.312-1.189c0.242-0.198,0.471-0.412,0.676-0.649c0.032-0.038,0.061-0.079,0.092-0.118
		c0.075-0.092,0.151-0.184,0.221-0.281c0.07-0.099,0.132-0.202,0.196-0.306c0.025-0.042,0.054-0.081,0.079-0.123
		c0.424-0.737,0.672-1.585,0.672-2.485c0-2.038-1.186-3.804-2.909-4.634l-0.003-0.003h0l-17.389-13.92l41.931-16.785
		c1.438-0.58,2.539-1.775,3.002-3.254c0.458-1.482,0.225-3.092-0.634-4.385l-7.11-10.67l8.695-1.449
		c2.408-0.402,4.203-2.434,4.299-4.873c0.075-1.83-0.823-3.506-2.275-4.48c-0.484-0.324-1.029-0.571-1.621-0.721l-20.059-5.023
		c-0.926-0.23-1.892-0.197-2.792,0.08l-66.157,20.683l30.136-68.915l55.316,27.671c0.103,0.049,0.209,0.08,0.313,0.122
		c0.111,0.046,0.222,0.093,0.336,0.131c0.041,0.015,0.08,0.034,0.121,0.047c0.019,0.007,0.038,0.012,0.058,0.018
		c0.182,0.054,0.365,0.096,0.549,0.129c0.012,0.003,0.023,0.007,0.035,0.009c0.009,0.002,0.019,0.003,0.028,0.005
		c0.287,0.049,0.573,0.081,0.859,0.081c0.051,0,0.103-0.008,0.152-0.01c-0.003,0-0.006,0-0.01,0c0.003,0,0.007,0,0.011,0
		c0.024-0.001,0.049-0.004,0.073-0.005c0.22-0.009,0.438-0.032,0.654-0.07c0.005-0.001,0.01-0.001,0.015-0.001
		c-0.001,0-0.001,0-0.002,0c0.041-0.007,0.082-0.004,0.122-0.012l23.927-4.797l77.702,19.436l31.237,31.266l-12.973,21.629
		c-0.032,0.053-0.051,0.11-0.08,0.165c-0.001,0.002-0.002,0.003-0.004,0.007c-0.068,0.123-0.126,0.25-0.184,0.377
		c-0.002,0.006-0.004,0.011-0.006,0.016c-0.035,0.078-0.074,0.155-0.108,0.233c-0.01,0.021-0.021,0.04-0.03,0.062
		c-0.011,0.029-0.018,0.06-0.025,0.09c-0.011,0.04-0.022,0.08-0.035,0.119c0.002-0.006,0.005-0.013,0.007-0.019c0,0,0,0,0,0.001
		c0,0,0,0,0,0.001c-0.002,0.006-0.005,0.012-0.007,0.019c-0.039,0.119-0.07,0.24-0.101,0.361c-0.025,0.109-0.061,0.215-0.08,0.326
		c0.006-0.035,0.017-0.068,0.027-0.103c-0.003,0.011-0.006,0.021-0.008,0.032c-0.006,0.023-0.014,0.046-0.018,0.068
		c-0.003,0.02-0.004,0.039-0.006,0.06c-0.002,0.02-0.004,0.039-0.006,0.059c0.003-0.039,0.005-0.078,0.011-0.118
		c-0.016,0.088-0.02,0.174-0.029,0.262c0.001-0.009,0.003-0.018,0.005-0.025c0,0.001,0,0.003,0,0.004
		c-0.002,0.008-0.003,0.016-0.004,0.023c-0.015,0.107-0.022,0.215-0.029,0.324c-0.006,0.109-0.017,0.217-0.017,0.326
		c0,0.021,0.003,0.043,0.004,0.064c0.003,0.079,0.009,0.158,0.013,0.236c0.006,0.1,0.014,0.197,0.026,0.295
		c0.012,0.105,0.023,0.207,0.043,0.312c0.02,0.109,0.049,0.217,0.076,0.324c0.022,0.09,0.043,0.18,0.07,0.27
		c-0.005-0.018-0.009-0.035-0.013-0.053c0.005,0.019,0.009,0.037,0.014,0.055c0.029,0.091,0.062,0.182,0.095,0.273
		c0.001,0.003,0.001,0.006,0.002,0.008c0.003,0.008,0.007,0.016,0.01,0.023c0.012,0.029,0.026,0.059,0.039,0.089
		c-0.017-0.037-0.035-0.073-0.049-0.11c0.043,0.113,0.093,0.225,0.145,0.334c0.03,0.066,0.059,0.134,0.09,0.199
		c0.007,0.016,0.013,0.031,0.021,0.047c0.004,0.008,0.01,0.015,0.014,0.022c0.041,0.076,0.086,0.149,0.131,0.226
		c0.068,0.113,0.144,0.221,0.22,0.33c0.051,0.07,0.091,0.146,0.146,0.217c0.058,0.072,0.128,0.139,0.19,0.209
		c0.087,0.1,0.18,0.193,0.274,0.287c0.001,0.002,0.004,0.003,0.005,0.005c0.068,0.065,0.124,0.142,0.197,0.204l115.311,100.305
		c0.017,0.016,0.036,0.025,0.054,0.038c-0.019-0.012-0.037-0.023-0.055-0.038c0.098,0.084,0.203,0.156,0.308,0.232
		c0.058,0.043,0.111,0.09,0.172,0.131c0.062,0.043,0.128,0.078,0.192,0.119c0.072,0.045,0.146,0.088,0.221,0.129
		c0.062,0.035,0.121,0.076,0.185,0.107l21.255,10.635l-46.491,25.373c-0.127,0.07-0.241,0.158-0.362,0.238
		c-0.067,0.043-0.136,0.084-0.202,0.131c-0.051,0.037-0.104,0.072-0.155,0.111c-0.062,0.049-0.114,0.107-0.175,0.16
		c-0.134,0.115-0.271,0.229-0.393,0.359l-0.08,0.084c-0.005,0.006-0.013,0.012-0.018,0.018l-0.007,0.008l-0.028,0.031
		l-16.982,18.122l-16.986,18.127l-1.803-7.23l-0.451-1.812c-0.144-0.575-0.382-1.106-0.694-1.581
		c-0.933-1.42-2.536-2.325-4.31-2.325h-11.332l-3.841-11.514c-0.019-0.053-0.045-0.1-0.064-0.15
		c-0.001-0.005-0.004-0.009-0.006-0.014c-0.03-0.085-0.057-0.171-0.092-0.254c-0.003-0.008-0.005-0.016-0.008-0.023
		c-0.004-0.009-0.009-0.016-0.013-0.024c-0.014-0.028-0.028-0.056-0.043-0.083c-0.015-0.028-0.029-0.057-0.044-0.086
		c0-0.001-0.001-0.003-0.002-0.004c-0.001-0.003-0.002-0.005-0.003-0.008c-0.003-0.007-0.007-0.014-0.011-0.021
		c-0.019-0.042-0.039-0.083-0.059-0.124c-0.002-0.003-0.003-0.007-0.005-0.01c0-0.001-0.001-0.002-0.001-0.003
		c-0.003-0.007-0.005-0.014-0.009-0.021c-0.021-0.039-0.047-0.074-0.068-0.113c-0.002-0.004-0.005-0.007-0.007-0.011
		c-0.047-0.08-0.095-0.158-0.145-0.235c-0.001-0.002-0.003-0.005-0.004-0.008c-0.004-0.007-0.009-0.013-0.014-0.02
		c-0.008-0.012-0.016-0.023-0.024-0.035c-0.01-0.015-0.021-0.029-0.031-0.044c-0.013-0.02-0.026-0.038-0.04-0.058
		c-0.003-0.006-0.008-0.012-0.011-0.018c-0.003-0.004-0.005-0.007-0.008-0.01c-0.015-0.021-0.031-0.042-0.046-0.063
		c-0.031-0.043-0.061-0.087-0.094-0.128c-0.015-0.02-0.027-0.041-0.044-0.061c-0.072-0.088-0.154-0.169-0.234-0.252
		c-0.007-0.007-0.013-0.015-0.02-0.021c-0.002-0.003-0.005-0.005-0.007-0.008c-0.003-0.003-0.006-0.007-0.009-0.01
		c-0.044-0.05-0.085-0.101-0.133-0.146c-0.029-0.029-0.057-0.059-0.086-0.086c-0.027-0.025-0.057-0.045-0.082-0.068
		c-0.056-0.049-0.115-0.092-0.172-0.139c-0.117-0.094-0.232-0.191-0.357-0.277c-0.011-0.006-0.021-0.016-0.031-0.023l-15.865-10.479
		l-35.097-15.043c-0.115-0.049-0.233-0.07-0.35-0.111c-0.146-0.053-0.289-0.105-0.439-0.143c-0.217-0.057-0.434-0.088-0.651-0.113
		c-0.101-0.012-0.198-0.027-0.3-0.033c-0.255-0.016-0.506-0.004-0.757,0.02c-0.075,0.006-0.147,0.008-0.222,0.018
		c-0.283,0.039-0.559,0.105-0.829,0.189c-0.036,0.01-0.072,0.012-0.108,0.025c-0.012,0.004-0.021,0.01-0.032,0.014
		c-0.252,0.088-0.493,0.199-0.729,0.324c-0.068,0.037-0.14,0.064-0.206,0.104c-0.196,0.115-0.376,0.252-0.556,0.393
		c-0.088,0.068-0.182,0.129-0.265,0.201c-0.143,0.127-0.267,0.273-0.396,0.418c-0.097,0.109-0.202,0.209-0.29,0.326
		c-0.098,0.129-0.177,0.277-0.263,0.418c-0.079,0.129-0.172,0.246-0.24,0.383l-32.782,65.605l-5.426-2.715
		c-0.009-0.004-0.02-0.008-0.028-0.012l-3.416-1.707l-3.939-17.734l-4.928-22.188c-0.007-0.031-0.018-0.061-0.024-0.09
		c0,0.002,0.001,0.004,0.001,0.006c-0.001-0.002-0.002-0.005-0.002-0.008c-0.019-0.07-0.039-0.141-0.061-0.213
		c-0.035-0.125-0.073-0.25-0.118-0.371c-0.026-0.068-0.056-0.135-0.083-0.201c-0.002-0.006-0.004-0.01-0.006-0.015
		c0.002,0.005,0.006,0.01,0.007,0.015c-0.004-0.009-0.007-0.018-0.011-0.026l0-0.001c-0.012-0.029-0.021-0.057-0.032-0.082
		c-0.033-0.075-0.07-0.146-0.107-0.219c-0.005-0.011-0.01-0.022-0.016-0.033c-0.03-0.061-0.062-0.117-0.096-0.176
		c-0.067-0.119-0.14-0.238-0.218-0.352c-0.002-0.004-0.004-0.008-0.006-0.012c0.001,0.002,0.002,0.004,0.003,0.006l-0.004-0.006
		l-0.002-0.004c-0.001-0.001-0.002-0.003-0.002-0.004c-0.001-0.003-0.003-0.005-0.005-0.008c-0.007-0.012-0.014-0.022-0.021-0.033
		c-0.021-0.031-0.044-0.061-0.065-0.09c-0.09-0.121-0.185-0.238-0.283-0.354c-0.032-0.037-0.063-0.076-0.098-0.111
		c-0.005-0.006-0.011-0.011-0.016-0.016c-0.049-0.054-0.099-0.106-0.151-0.158c-0.004-0.004-0.009-0.008-0.013-0.012
		c-0.054-0.053-0.111-0.102-0.168-0.154c-0.03-0.027-0.06-0.057-0.091-0.084c-0.133-0.113-0.273-0.219-0.417-0.318
		c-0.025-0.018-0.048-0.037-0.074-0.055c-0.073-0.049-0.154-0.089-0.23-0.134c-0.015-0.01-0.03-0.018-0.045-0.026
		c-0.088-0.052-0.172-0.108-0.264-0.154l-90.244-45.135c-0.336-0.166-0.688-0.297-1.05-0.389l-56.26-14.079v-16.04
		c0-0.424-0.051-0.84-0.155-1.248l-15.042-60.189c-0.433-1.73-1.709-3.074-3.33-3.627h51.001l18.511,23.146
		C543.632,628.683,543.832,628.883,544.041,629.068z M818.788,442.03c-0.904,1.508-0.978,3.379-0.192,4.955l5.009,10.021
		c0.377,0.75,0.932,1.399,1.616,1.888l26.878,19.203l-5.454,1.823c-0.076,0.025-0.145,0.066-0.219,0.096
		c-0.174,0.066-0.345,0.136-0.512,0.222c-0.036,0.019-0.076,0.029-0.111,0.049c-0.022,0.013-0.043,0.028-0.065,0.041
		c-0.075,0.043-0.142,0.098-0.215,0.144c-0.136,0.087-0.272,0.17-0.4,0.27c-0.011,0.009-0.021,0.016-0.033,0.023
		c-0.017,0.011-0.034,0.021-0.049,0.034c-0.01,0.007-0.018,0.017-0.027,0.025c-0.022,0.021-0.045,0.043-0.069,0.063
		c-0.082,0.069-0.153,0.146-0.231,0.222c-0.095,0.091-0.194,0.173-0.282,0.272c-0.017,0.02-0.035,0.036-0.051,0.056
		c-0.039,0.044-0.069,0.096-0.106,0.141c-0.075,0.094-0.141,0.194-0.21,0.293c-0.066,0.097-0.146,0.184-0.207,0.284l-8.818,14.706
		v-12.302h-0.001v12.304l-4.416,7.364l-22.326-3.727v-10.691c0-2.298-1.524-4.319-3.736-4.953l-33.795-9.661l-24.127-24.132
		c-0.392-0.394-0.847-0.719-1.337-0.967l-10.028-5.009c-0.056-0.028-0.115-0.048-0.172-0.073c-0.055-0.025-0.11-0.049-0.166-0.071
		c-0.146-0.061-0.296-0.114-0.447-0.161c-0.055-0.017-0.106-0.039-0.162-0.054c-0.021-0.006-0.044-0.008-0.065-0.014
		c-0.202-0.053-0.407-0.094-0.613-0.12c-0.021-0.004-0.043-0.01-0.063-0.012c-0.019-0.002-0.037-0.004-0.056-0.006
		c-0.094-0.011-0.188-0.011-0.281-0.016c-0.116-0.006-0.23-0.014-0.347-0.013c-0.058,0-0.115,0.007-0.172,0.01
		c-0.105,0.005-0.211,0.008-0.314,0.019c-0.065,0.007-0.131,0.021-0.194,0.029c-0.081,0.012-0.16,0.025-0.24,0.042
		c-0.076,0.015-0.153,0.025-0.229,0.045c-0.099,0.023-0.193,0.054-0.29,0.083c-0.053,0.016-0.104,0.032-0.154,0.049
		c-0.107,0.037-0.211,0.081-0.315,0.124c-0.103,0.043-0.207,0.082-0.307,0.131c-0.006,0.003-0.014,0.006-0.021,0.009l-18.721,9.368
		l-48.645-4.877c-0.79-0.071-1.611,0.035-2.365,0.316l-62.921,24.214l-39.713-22.067l23.421-112.438l161.348,4.756l56.179,13.229
		l-5.52,9.204l2.069-3.45l-2.069,3.451c-0.332,0.56-0.56,1.166-0.664,1.806l-0.939,5.645l-0.187,1.124v0l-0.001,0.003v0.001
		l-3.41,6.819c-0.489,0.977-0.653,2.078-0.472,3.147l0.695,4.174l0.416,2.501l-1.11,6.671c-0.034,0.207-0.056,0.415-0.065,0.623
		c-0.028,0.625,0.057,1.252,0.253,1.848l10.015,30.097c0.104,0.311,0.24,0.6,0.393,0.875c0.032,0.058,0.069,0.108,0.104,0.163
		c0.132,0.22,0.275,0.424,0.436,0.617c0.042,0.05,0.085,0.098,0.129,0.146c0.174,0.193,0.361,0.373,0.561,0.537
		c0.035,0.027,0.066,0.057,0.102,0.084c0.105,0.082,0.22,0.15,0.332,0.224c-0.112-0.073-0.227-0.142-0.333-0.224
		c0.743,0.579,1.63,0.946,2.574,1.057c0.024,0.003,0.049,0.004,0.074,0.006c0.172,0.018,0.343,0.041,0.518,0.041h0h0
		c0.104,0,0.209-0.019,0.313-0.025c0,0,0,0,0.001,0c0.069-0.004,0.14-0.01,0.21-0.017c0.227-0.022,0.455-0.066,0.682-0.119
		c0.001,0,0.001,0,0.002,0c0.002,0,0.005-0.001,0.007-0.001c-0.004,0.001-0.008,0.002-0.012,0.003
		c0.069-0.016,0.139-0.017,0.208-0.036l22.563-6.446L818.788,442.03z M622.801,514.759c-0.379-0.008-0.76,0.025-1.134,0.098
		l-23.117,4.632l-23.974-14.336l-30.58-13.116l11.213-29.927l39.904,22.173c0.812,0.455,1.724,0.668,2.635,0.644
		c0.021,0,0.042,0.001,0.062,0.001c0.56-0.022,1.119-0.134,1.653-0.338l64.023-24.642l48.909,4.904
		c0.247,0.02,0.491,0.024,0.733,0.014c0.182-0.008,0.362-0.025,0.54-0.051c0.535-0.078,1.053-0.236,1.543-0.483l11.334-5.67
		l-11.334,5.671l16.998-8.504l32.503,27.859c0.012,0.011,0.026,0.018,0.039,0.028c0.229,0.194,0.469,0.369,0.72,0.517
		c0.007,0.004,0.015,0.007,0.021,0.011c0.006,0.004,0.013,0.006,0.02,0.01c0.021,0.011,0.044,0.022,0.066,0.034
		c0.001,0,0.003,0.001,0.004,0.002c0.035,0.021,0.071,0.036,0.107,0.056c0.166,0.086,0.334,0.164,0.51,0.231
		c-0.036-0.014-0.07-0.033-0.105-0.049c0.036,0.015,0.07,0.034,0.106,0.048c0.076,0.03,0.153,0.056,0.231,0.082
		c0.004,0.001,0.008,0.003,0.012,0.004c-0.004-0.001-0.008-0.002-0.012-0.003c0.072,0.024,0.141,0.055,0.214,0.076
		c-0.007-0.002-0.014-0.006-0.02-0.008c0.002,0.001,0.005,0.002,0.008,0.003c0.004,0.001,0.009,0.004,0.013,0.005l31.343,8.957
		v11.168c0,1.98,1.138,3.722,2.829,4.58c0.457,0.232,0.946,0.413,1.474,0.5l16.28,2.717l6.522,1.089l-16.263,28.457l-0.061,0.104
		l-0.048,0.082c-0.005,0.01-0.009,0.02-0.014,0.029l-0.007,0.012c-0.002,0.003-0.003,0.007-0.004,0.01s-0.002,0.005-0.004,0.008
		c-0.003,0.006-0.005,0.012-0.008,0.018c-0.103,0.182-0.195,0.369-0.274,0.561c-0.01,0.021-0.015,0.045-0.022,0.066
		c-0.002,0.004-0.003,0.01-0.005,0.014c-0.024,0.062-0.045,0.127-0.067,0.189c-0.021,0.061-0.04,0.121-0.059,0.182
		c-0.038,0.125-0.07,0.25-0.098,0.375c0,0.003-0.001,0.006-0.002,0.008c-0.001,0.004-0.002,0.008-0.003,0.012
		c-0.007,0.035-0.022,0.068-0.029,0.104l-3.91,19.561l-1.147,2.869l-1.146,2.865l-41.17,45.314l-3.455,3.803l-27.505-19.65
		l12.595-21.004c1.217-2.025,0.896-4.621-0.774-6.291l-35.086-35.116c-0.659-0.657-1.483-1.125-2.396-1.352l-80.21-20.062
		C623.557,514.816,623.18,514.766,622.801,514.759z M547.529,453.251L547.529,453.251L547.529,453.251L547.529,453.251z"/>
	<path fill="#FFFFFF" d="M928.613,377.829c0-0.001,0.001-0.002,0.001-0.003c-0.002,0.008-0.007,0.016-0.01,0.023
		C928.606,377.843,928.61,377.836,928.613,377.829z"/>
	<path fill="#FFFFFF" d="M752.036,752.447c-0.017-0.02-0.029-0.041-0.045-0.061c0.015,0.018,0.025,0.035,0.039,0.053
		C752.031,752.443,752.033,752.445,752.036,752.447z"/>
	<path fill="#FFFFFF" d="M662.779,805.929c-0.027,0-0.053-0.003-0.08-0.006c0.026,0.003,0.052,0.006,0.078,0.006
		C662.777,805.929,662.778,805.929,662.779,805.929z"/>
	<polygon fill="#FFFFFF" points="869.961,710.574 869.962,710.574 841.225,696.195 	"/>
</g>
<g id="Gemeenten">
	
		<radialGradient id="SVGID_1_" cx="933.8738" cy="315.0042" r="964.0304" gradientTransform="matrix(1.0011 0 0 -0.7964 25.1502 790.9484)" gradientUnits="userSpaceOnUse">
		<stop  offset="0" style="stop-color:#DAE8F5"/>
		<stop  offset="0.7554" style="stop-color:#B9D6EF"/>
		<stop  offset="1" style="stop-color:#ACCEEC"/>
	</radialGradient>
	<path fill="url(#SVGID_1_)" d="M482.166,671.01l-13.915-55.676h-31.073h-0.001c-2.57,0-4.743-1.891-5.1-4.436
		c-0.356-2.543,1.218-4.957,3.687-5.668l35.096-10.023c0.457-0.129,0.937-0.195,1.413-0.195h0.001h55.143h0.001
		c1.563,0,3.043,0.711,4.021,1.932l1.167,1.462c0.312-0.859,0.855-1.638,1.599-2.241c1.021-0.836,2.295-1.223,3.555-1.143l0,0
		c0,0,0,0,0.001,0c0.18,0.011,0.358,0.047,0.536,0.078c0.179,0.031,0.354,0.071,0.529,0.121c0.175,0.05,0.352,0.096,0.523,0.164
		c0.068,0.027,0.134,0.064,0.202,0.094c0.136,0.059,0.273,0.114,0.405,0.188c0.189-0.111,0.391-0.201,0.591-0.287l44.239-17.711
		l-4.979-7.473h-12.283h-0.002c-2.68,0-4.913-2.059-5.134-4.727c-0.006-0.107-0.011-0.207-0.015-0.313l-63.488,19.849
		c-0.127,0.04-0.259,0.061-0.389,0.091c-0.378,0.088-0.763,0.147-1.152,0.147h-25.07c-1.015,0-2.011-0.303-2.855-0.865
		l-10.404-6.939h0l0.002,0.002h-0.002l-14.513,7.26c-0.278,0.139-0.562,0.238-0.85,0.322c-0.012,0.004-0.023,0.01-0.036,0.014
		c-0.027,0.008-0.057,0.018-0.086,0.025c-0.303,0.08-0.608,0.135-0.915,0.16c-0.007,0-0.015,0-0.022,0
		c-0.13,0.01-0.259,0.021-0.39,0.021c-0.185,0-0.366-0.016-0.549-0.035c-0.002,0-0.004,0-0.006,0
		c-0.304-0.031-0.604-0.094-0.896-0.18c-0.033-0.01-0.064-0.021-0.097-0.031c-0.251-0.078-0.494-0.178-0.73-0.293
		c-0.044-0.021-0.089-0.041-0.132-0.064c-0.258-0.135-0.506-0.291-0.737-0.469c-0.029-0.023-0.057-0.051-0.086-0.074
		c-0.196-0.158-0.38-0.332-0.553-0.521c0,0,0,0,0-0.001c0,0-0.001-0.001-0.001-0.001c0,0,0.001,0.001,0.001,0.001
		c-0.052-0.054-0.102-0.11-0.151-0.169c-0.189-0.225-0.369-0.463-0.522-0.727c0-0.001,0-0.001,0-0.002c0,0,0,0,0,0
		c-1.363-2.354-0.663-5.359,1.6-6.869l15.041-10.033c0.208-0.139,0.425-0.26,0.646-0.365c0.018-0.009,0.036-0.014,0.054-0.021
		c-0.018,0.008-0.037,0.014-0.055,0.021c-0.222,0.105-0.438,0.227-0.646,0.365c0.208-0.139,0.425-0.26,0.646-0.365
		c0.018-0.008,0.037-0.014,0.055-0.021c0.073-0.031,0.147-0.058,0.221-0.088c0.133-0.055,0.266-0.111,0.402-0.154
		c0.118-0.037,0.238-0.061,0.358-0.088c0.113-0.025,0.226-0.057,0.339-0.074c0.133-0.023,0.267-0.031,0.399-0.043
		c0.104-0.008,0.208-0.021,0.312-0.023c0.139-0.004,0.276,0.004,0.413,0.012c-0.137-0.008-0.274-0.016-0.413-0.012
		c0.139-0.002,0.275,0.004,0.413,0.014c0.103,0.006,0.202,0.01,0.304,0.021c0.136,0.016,0.271,0.041,0.404,0.066
		c0.104,0.02,0.205,0.041,0.307,0.066c0.13,0.035,0.257,0.076,0.385,0.121c0.104,0.035,0.206,0.074,0.308,0.117
		c0.122,0.051,0.241,0.107,0.359,0.168c0.046,0.025,0.094,0.041,0.14,0.066l0.18-0.09l0.025-0.014
		c0.228-0.112,0.464-0.207,0.706-0.283c0.724-0.229,1.495-0.3,2.243-0.221l36.293,4.545l33.485-76.57l-0.006,0.018l0.005-0.014
		l0.001-0.002l0.002-0.004l0.002-0.007l-0.004,0.01l14.865-39.673l0-0.004l0.002-0.005l24.957-119.838l0,0l0.014-0.069l0.006-0.027
		l0.012-0.067l0.005-0.025l4.529-24.919H175.83v506.412h267.542l38.794-125.055V671.01z M438.262,583.402
		c-0.19-0.225-0.369-0.463-0.522-0.727C437.893,582.939,438.072,583.177,438.262,583.402z"/>
	<polygon fill="#ECECEC" points="932.811,735.67 907.414,731.435 889.315,814.709 1076.115,814.709 1076.115,761.293 
		1007.781,745.666 	"/>
	<path fill="#ECECEC" d="M1004.744,332.051l5.418,19.871l7.293,26.746l9.275,0.55l18.426-18.437c0.02-0.019,0.041-0.031,0.061-0.049
		c0.199-0.193,0.412-0.37,0.639-0.528c0.029-0.02,0.057-0.045,0.084-0.063c0.006-0.003,0.014-0.006,0.018-0.011
		c0.229-0.15,0.473-0.278,0.723-0.392c0.043-0.02,0.084-0.044,0.127-0.062c0.031-0.014,0.064-0.021,0.096-0.034
		c0.244-0.098,0.494-0.18,0.752-0.238c0.027-0.006,0.055-0.01,0.08-0.015c0.053-0.012,0.105-0.019,0.156-0.027
		c0.207-0.037,0.418-0.062,0.631-0.074c0.053-0.003,0.105-0.008,0.158-0.009c0.039-0.001,0.08-0.007,0.119-0.007h12.461l13.5-17.993
		c0.374-0.5,0.837-0.917,1.355-1.248v-31.734h-69.936l-2.291,20.618L1004.744,332.051z"/>
	<path fill="#ECECEC" d="M646.018,800.613c-0.021-0.008-0.042-0.018-0.062-0.027C645.976,800.595,645.997,800.605,646.018,800.613
		c0.006,0.002,0.013,0.004,0.02,0.005c-0.004-0.001-0.008-0.003-0.012-0.005c-0.003,0-0.006-0.001-0.009-0.002
		c-0.021-0.008-0.042-0.018-0.062-0.027c-0.226-0.082-0.443-0.184-0.653-0.297c-0.061-0.033-0.119-0.066-0.178-0.102
		c-0.179-0.105-0.35-0.223-0.514-0.348c-0.047-0.033-0.095-0.068-0.14-0.105c-0.205-0.168-0.401-0.348-0.578-0.547
		c0-0.001,0-0.002-0.001-0.002c-0.057-0.064-0.103-0.14-0.156-0.208c-0.106-0.134-0.215-0.267-0.309-0.409
		c-0.039-0.062-0.075-0.125-0.112-0.188c-0.1-0.17-0.189-0.344-0.271-0.525c-0.031-0.07-0.065-0.141-0.094-0.213
		c-0.097-0.248-0.183-0.502-0.241-0.77c0.059,0.268,0.145,0.523,0.241,0.771c-0.097-0.248-0.183-0.504-0.241-0.771l-0.025-0.115
		l-0.067-0.3l-0.001-0.001v-0.001l-2.19-1.097l0.439,0.22l-0.438-0.22c-1.538-0.77-2.595-2.256-2.807-3.967L632.946,754
		l-58.18-29.101l-29.09-14.548l-13.305-3.331l-41.579-10.403l-36.634,118.092h187.988l3.907-14.08
		C646.041,800.623,646.03,800.617,646.018,800.613z M644.47,799.734c-0.206-0.168-0.401-0.35-0.578-0.547
		C644.069,799.385,644.264,799.566,644.47,799.734c0.045,0.037,0.093,0.07,0.14,0.107
		C644.563,799.804,644.515,799.771,644.47,799.734z M645.125,800.187c-0.179-0.105-0.351-0.221-0.514-0.346
		C644.774,799.967,644.946,800.082,645.125,800.187z M645.302,800.289c-0.061-0.031-0.119-0.066-0.178-0.102
		C645.182,800.222,645.241,800.258,645.302,800.289c0.211,0.113,0.428,0.215,0.653,0.297
		C645.729,800.504,645.512,800.402,645.302,800.289z"/>
	<path fill="#ECECEC" d="M724.116,329.312l7.321,1.725L724.116,329.312l16.418,3.867l3.868,0.911l3.75,0.109
		c0.372,0.015,0.741,0.066,1.098,0.156l53.274,13.314l-2.816-39.374H587.518l-3.795,20.88h139.208h0.001
		C723.329,329.177,723.726,329.223,724.116,329.312z"/>
	<line fill="#ECECEC" x1="995.813" y1="308.297" x2="940.233" y2="308.297"/>
	<path fill="#ECECEC" d="M764.04,775.826h-10.985c-0.013,0-0.027,0.004-0.04,0.004c-0.122,0-0.239-0.02-0.359-0.028
		c-0.117-0.009-0.236-0.009-0.353-0.024c-0.001,0-0.003-0.001-0.005-0.001c-0.009-0.001-0.018-0.003-0.027-0.005
		c-0.006-0.001-0.013-0.001-0.019-0.002c-0.09-0.014-0.179-0.037-0.268-0.057c-0.027-0.005-0.052-0.014-0.079-0.02
		c-0.098-0.019-0.197-0.035-0.293-0.061c-0.022-0.008-0.043-0.016-0.064-0.023c-0.007-0.003-0.014-0.005-0.021-0.007
		c-0.003-0.001-0.007-0.002-0.011-0.003c-0.086-0.027-0.17-0.061-0.255-0.092c-0.014-0.006-0.029-0.012-0.043-0.016
		c-0.011-0.004-0.021-0.009-0.032-0.014c-0.08-0.028-0.161-0.052-0.239-0.086c-0.051-0.023-0.099-0.053-0.149-0.076
		c-0.064-0.031-0.126-0.065-0.189-0.099c-0.029-0.016-0.059-0.029-0.087-0.046c-0.002-0.001-0.004-0.003-0.006-0.004
		c-0.065-0.034-0.132-0.064-0.195-0.104c-0.054-0.033-0.102-0.073-0.154-0.109c-0.007-0.004-0.014-0.008-0.02-0.012
		c-0.007-0.006-0.015-0.012-0.021-0.016c-0.08-0.055-0.159-0.111-0.236-0.17c-0.047-0.037-0.099-0.066-0.146-0.105
		c-0.046-0.039-0.086-0.084-0.131-0.123c-0.015-0.015-0.031-0.03-0.046-0.045c-0.005-0.005-0.011-0.009-0.016-0.014
		c-0.034-0.031-0.066-0.063-0.1-0.095c-0.037-0.034-0.075-0.067-0.11-0.103c-0.018-0.019-0.036-0.036-0.055-0.054
		c-0.02-0.019-0.039-0.036-0.058-0.056c-0.015-0.017-0.028-0.035-0.042-0.053c-0.022-0.028-0.044-0.057-0.068-0.084
		c-0.032-0.038-0.063-0.079-0.095-0.119c0,0-0.001-0.001-0.002-0.002c-0.002-0.003-0.005-0.006-0.007-0.01
		c-0.001,0-0.002-0.001-0.002-0.002c-0.056-0.07-0.113-0.133-0.165-0.205c0-0.001-0.001-0.002-0.001-0.003
		c-0.021-0.028-0.043-0.052-0.064-0.081c-0.084-0.123-0.153-0.256-0.229-0.385c-0.021-0.038-0.043-0.075-0.066-0.111
		c-0.016-0.026-0.033-0.053-0.047-0.08c-0.009-0.018-0.02-0.033-0.029-0.049l-5.015-10.023c-0.354-0.715-0.543-1.504-0.543-2.303
		v-1.832h0.001l0,0l-21.661-10.834l-21.019-10.512l-32.782,65.605c0.002-0.004,0.003-0.009,0.005-0.013l-0.006,0.013
		c-0.136,0.271-0.302,0.523-0.481,0.766c-0.054,0.072-0.111,0.141-0.17,0.211c-0.146,0.176-0.302,0.34-0.47,0.496
		c-0.057,0.053-0.11,0.107-0.169,0.156c-0.224,0.189-0.462,0.357-0.712,0.504c-0.06,0.035-0.124,0.062-0.185,0.096
		c-0.213,0.113-0.433,0.211-0.66,0.295c-0.007,0.003-0.014,0.005-0.02,0.007c-0.001,0.001-0.003,0.001-0.004,0.002
		c0.008-0.003,0.017-0.006,0.025-0.009c0.228-0.084,0.447-0.182,0.66-0.295c-0.213,0.113-0.433,0.211-0.66,0.295
		c-0.045,0.016-0.085,0.043-0.131,0.059c-0.037,0.014-0.076,0.016-0.113,0.027c-0.159,0.051-0.32,0.086-0.481,0.119
		c-0.092,0.02-0.184,0.045-0.276,0.059c0.005-0.002,0.01-0.004,0.016-0.004c0.016-0.003,0.031-0.009,0.046-0.011
		c-0.002,0-0.005,0.001-0.007,0.001c-0.013,0.003-0.026,0.008-0.04,0.01c-0.005,0-0.011,0.002-0.016,0.004c-0.001,0-0.002,0-0.003,0
		c-0.139,0.021-0.277,0.027-0.416,0.037c-0.105,0.006-0.209,0.021-0.314,0.021c-0.008,0-0.017,0.002-0.025,0.002
		c-0.001,0-0.002,0-0.002,0c-0.052,0-0.103-0.008-0.155-0.011c-0.002,0-0.004,0-0.006,0c0.054,0.002,0.106,0.011,0.16,0.011
		c-0.001,0-0.002,0-0.002,0c-0.056,0-0.112-0.01-0.17-0.012c-0.109-0.002-0.22-0.008-0.33-0.018c0.11,0.01,0.221,0.016,0.33,0.018
		c0,0,0,0,0.001,0c-0.109-0.004-0.22-0.008-0.33-0.018c-0.028-0.004-0.058-0.002-0.086-0.006c-0.094-0.01-0.187-0.033-0.279-0.047
		c-0.101-0.018-0.201-0.029-0.301-0.053c0.1,0.023,0.2,0.035,0.301,0.053c0.093,0.014,0.186,0.037,0.279,0.047
		c-0.094-0.012-0.187-0.033-0.279-0.049c-0.101-0.018-0.2-0.029-0.301-0.053c-0.027-0.006-0.056-0.017-0.083-0.023
		c0,0-0.001,0-0.002,0c-0.002-0.001-0.004-0.001-0.006-0.002c0,0,0,0,0,0c-0.011-0.003-0.021-0.007-0.032-0.01
		c-0.063-0.018-0.125-0.036-0.188-0.055c-0.002,0-0.004-0.002-0.006-0.002c-0.21-0.064-0.415-0.15-0.62-0.239
		c-0.064-0.028-0.132-0.044-0.195-0.075l-0.888-0.444l-3.553-1.776l-3.204,11.543h88.532l25.565-27.281L764.04,775.826z
		 M666.1,804.711c-0.223,0.189-0.46,0.357-0.712,0.506c-0.06,0.035-0.124,0.062-0.185,0.096c0.061-0.033,0.125-0.061,0.185-0.096
		C665.64,805.068,665.878,804.9,666.1,804.711c0.059-0.049,0.112-0.104,0.169-0.156C666.213,804.607,666.159,804.662,666.1,804.711z
		"/>
	<path fill="#ECECEC" d="M868.931,721.047l-52.499,28.65l-24.13,27.163v8.333v-8.333l-15.379,17.312
		c-0.049,0.055-0.104,0.104-0.155,0.156c-0.004,0.005-0.009,0.01-0.013,0.015c0.004-0.004,0.009-0.009,0.013-0.013
		c-0.02,0.02-0.036,0.043-0.057,0.064L757.105,814l-0.425,0.709h122.092l18.586-85.535L868.931,721.047z"/>
	<path fill="#ECECEC" d="M818.256,343.524c0.202,1.207-0.034,2.444-0.663,3.494l-4.267,7.116l-0.013,0.022
		c0.004,0.099-0.004,0.196-0.005,0.294c-0.001,0.091,0,0.184-0.005,0.273c-0.006,0.097-0.02,0.191-0.031,0.289
		c-0.015,0.121-0.03,0.24-0.053,0.358c-0.016,0.081-0.036,0.16-0.055,0.241c-0.031,0.127-0.064,0.252-0.105,0.376
		c-0.025,0.079-0.054,0.156-0.083,0.234c-0.044,0.116-0.092,0.23-0.145,0.345c-0.018,0.038-0.032,0.078-0.049,0.116
		c-0.002,0.006-0.004,0.012-0.007,0.017l-2.185,4.374l-8.748,17.518l-1.322,7.922l-0.916,5.5l3.557,21.342l2.762,8.309l0.551,1.656
		l30.356-8.674c1.774-0.506,3.666-0.019,4.976,1.237c0.188,0.18,0.363,0.375,0.524,0.585c1.285,1.676,1.416,3.968,0.332,5.782
		l-13.591,22.655l3.175,6.35l28.915,20.66v-0.019h0.001v0.019l3.012,2.152l26.431-8.811l42.513-42.527l-0.92-8.265l-0.143-1.275
		l-8.179-16.365c-0.608-1.222-0.709-2.634-0.281-3.927l5.009-15.047c0.002-0.007,0.006-0.014,0.008-0.021c0,0,0,0,0-0.001
		c0-0.002,0.001-0.003,0.001-0.004c0,0.001-0.001,0.002-0.001,0.003c-0.003,0.007-0.007,0.014-0.009,0.021
		c0.003-0.008,0.008-0.016,0.01-0.023c0.002-0.006,0.005-0.011,0.007-0.016c0.043-0.122,0.093-0.24,0.144-0.358
		c0.017-0.04,0.03-0.082,0.048-0.122c0.022-0.049,0.05-0.095,0.073-0.142c0.02-0.04,0.036-0.082,0.057-0.121
		c0.025-0.046,0.055-0.088,0.079-0.133c0.005-0.009,0.012-0.018,0.018-0.027c0.008-0.015,0.018-0.028,0.027-0.043
		c-0.015,0.023-0.031,0.045-0.045,0.07c0.062-0.108,0.128-0.212,0.198-0.316c0.034-0.049,0.063-0.101,0.099-0.149
		c0.002-0.003,0.003-0.004,0.006-0.007c0.021-0.029,0.041-0.059,0.062-0.086v-0.001c0.071-0.095,0.151-0.181,0.228-0.27
		c-0.076,0.089-0.156,0.175-0.228,0.27v0.001c-0.004,0.005-0.007,0.011-0.011,0.017c0.004-0.006,0.008-0.011,0.012-0.017
		c0.009-0.013,0.021-0.023,0.03-0.036c-0.009,0.012-0.021,0.023-0.03,0.035c0.071-0.094,0.149-0.181,0.228-0.27
		c0.004-0.005,0.008-0.009,0.012-0.014c0.009-0.01,0.018-0.02,0.026-0.03c-0.014,0.015-0.027,0.028-0.04,0.043
		c0.052-0.06,0.099-0.122,0.153-0.179c0.01-0.011,0.022-0.017,0.032-0.026c0.034-0.035,0.062-0.072,0.097-0.106
		c0.011-0.01,0.022-0.02,0.033-0.029c0.002-0.002,0.003-0.004,0.005-0.006c0.006-0.006,0.013-0.011,0.02-0.016
		c0.128-0.122,0.265-0.229,0.403-0.337c0.062-0.047,0.119-0.096,0.182-0.14c-0.062,0.044-0.12,0.093-0.182,0.14
		c-0.099,0.076-0.192,0.158-0.285,0.241c0.033-0.028,0.066-0.057,0.101-0.084c0.061-0.052,0.12-0.107,0.184-0.156
		c0.061-0.047,0.119-0.096,0.182-0.14c0.016-0.013,0.033-0.021,0.05-0.031c0.009-0.006,0.018-0.011,0.028-0.017
		c0,0,0.001-0.001,0.001-0.001c-0.01,0.006-0.021,0.012-0.03,0.019c0.009-0.007,0.021-0.013,0.032-0.02
		c0.001-0.001,0.003-0.003,0.004-0.004c0.01-0.007,0.021-0.012,0.03-0.019c0.004-0.003,0.009-0.004,0.014-0.007
		c0.061-0.039,0.123-0.076,0.185-0.113c0.002-0.001,0.005-0.002,0.007-0.004c0.06-0.036,0.118-0.076,0.179-0.109
		c0.065-0.035,0.131-0.072,0.197-0.104c0.043-0.021,0.09-0.036,0.135-0.057c0.001,0,0.002-0.001,0.004-0.002
		c0.103-0.047,0.206-0.09,0.312-0.13c0.001,0,0.003-0.001,0.004-0.001c0.025-0.01,0.048-0.021,0.073-0.029
		c0.083-0.03,0.165-0.059,0.249-0.083c0.02-0.006,0.041-0.01,0.062-0.015c0.02-0.006,0.041-0.01,0.061-0.016
		c-0.042,0.01-0.083,0.018-0.123,0.03c0.137-0.041,0.271-0.08,0.412-0.109c0.048-0.009,0.096-0.016,0.144-0.025
		c0.099-0.019,0.198-0.028,0.298-0.042c0.152-0.019,0.306-0.03,0.459-0.036c-0.153,0.006-0.307,0.018-0.459,0.036
		c-0.057,0.008-0.115,0.018-0.173,0.027c0.029-0.004,0.059-0.009,0.088-0.013c0.029-0.004,0.058-0.009,0.086-0.013
		c0.151-0.018,0.305-0.03,0.459-0.035c0.037-0.002,0.072-0.006,0.108-0.009c0.02-0.003,0.04-0.006,0.061-0.006h10.027l63.083,3.708
		l-7.776-28.534l-1.228-4.502l-0.443-1.626l-2.809-10.301l-30.998-13.292l-13.184,4.396c-1.429,0.497-2.987,0.312-4.28-0.467
		l-25.67-15.41H812.386l3.987,23.935L818.256,343.524z M812.975,356.223c0.029-0.078,0.058-0.155,0.083-0.234
		C813.033,356.068,813.005,356.145,812.975,356.223z"/>
	<path fill="#ECECEC" d="M1044.116,504.065l-17.841-9.736c-1.271-0.692-2.191-1.885-2.535-3.288
		c-0.087-0.351-0.136-0.707-0.147-1.062c-0.036-1.065,0.26-2.125,0.862-3.026l9.162-13.74v-37.007l-9.162-13.748
		c-0.562-0.844-0.865-1.84-0.865-2.856v-0.001v-29.956h-9.889l-0.092-0.006c-0.004,0-0.01,0.001-0.016,0.001
		c-0.068,0-0.145,0-0.211-0.005l-74.095-4.637l0.736,6.637l0.092,0.828l1.977,17.758l1.023,2.047
		c0.358,0.721,0.545,1.51,0.545,2.309v10.042c0,0,0,0.001,0,0.002s0,0,0,0.001v0.002c0,0.014-0.004,0.026-0.004,0.041
		c-0.001,0.279-0.032,0.554-0.081,0.826c-0.002,0.011-0.001,0.023-0.003,0.035c-0.007,0.034-0.006,0.07-0.012,0.103
		c-0.004,0.018-0.012,0.033-0.015,0.051c-0.036,0.167-0.095,0.326-0.146,0.488c-0.032,0.104-0.054,0.212-0.094,0.313
		c-0.001,0.002-0.001,0.004-0.002,0.006c-0.01,0.03-0.018,0.06-0.031,0.089c-0.012,0.03-0.03,0.058-0.043,0.088
		c-0.108,0.252-0.233,0.498-0.383,0.731c-0.01,0.015-0.021,0.028-0.031,0.044l-0.002,0.003c-0.021,0.035-0.048,0.066-0.071,0.101
		c-0.018,0.025-0.04,0.049-0.06,0.073c-0.038,0.053-0.082,0.102-0.122,0.153c-0.044,0.057-0.089,0.115-0.136,0.17
		c-0.042,0.056-0.082,0.113-0.129,0.165c-0.025,0.026-0.048,0.056-0.073,0.082c-0.002,0.002-0.005,0.004-0.008,0.007
		c-0.021,0.023-0.041,0.047-0.062,0.07L897.026,473.4c-0.053,0.053-0.112,0.099-0.168,0.15c-0.002,0.002-0.003,0.004-0.005,0.006
		c-0.043,0.039-0.085,0.077-0.129,0.114c-0.223,0.191-0.463,0.366-0.721,0.519c-0.034,0.019-0.07,0.036-0.104,0.056
		c-0.277,0.155-0.568,0.292-0.882,0.396l-3.49,1.163l-39.779,13.269h0l-16.709,28.652v33.169h-0.001v-33.167l-16.709,28.652v8.633
		v0.002c0,0.652-0.128,1.301-0.368,1.91l-3.832,9.571v0.001l-0.91,4.57c-0.181,0.914-0.609,1.764-1.239,2.459l-1.181,1.3v0.001
		h-0.001l-0.002,0.006l0.003-0.004l-2.87,7.176c-0.263,0.648-0.649,1.236-1.144,1.73l-41.351,41.387l75.789,71.076l-0.005-0.002
		l0.002,0.003l0.002,0.001l28.735,14.377h0.001l0.001,0.002h0.001l-0.002-0.002l139.638,24.947l66.518,15.209V521.529
		L1044.116,504.065z M869.961,710.574l-28.735-14.379L869.961,710.574L869.961,710.574z"/>
	<path fill="#ECECEC" d="M1067.953,367.511c-0.971,1.298-2.498,2.062-4.117,2.062h-12.457l-13.494,18.009
		c-0.119,0.16-0.248,0.312-0.385,0.454c-0.051,0.053-0.105,0.099-0.156,0.148c0.053-0.05,0.107-0.097,0.158-0.148
		c-0.051,0.052-0.105,0.099-0.158,0.148c-0.09,0.087-0.18,0.176-0.275,0.256c-0.059,0.049-0.123,0.091-0.184,0.137
		c-0.094,0.073-0.188,0.148-0.287,0.213c-0.062,0.042-0.133,0.077-0.197,0.116c-0.104,0.062-0.205,0.125-0.311,0.179
		c-0.066,0.033-0.135,0.06-0.201,0.09c-0.111,0.051-0.223,0.104-0.338,0.146c-0.066,0.024-0.133,0.042-0.199,0.063
		c-0.121,0.038-0.24,0.078-0.365,0.108c-0.064,0.018-0.133,0.026-0.197,0.04c-0.127,0.026-0.256,0.052-0.385,0.068
		c-0.064,0.008-0.133,0.011-0.197,0.017c-0.002,0-0.004,0-0.007,0c-0.103,0.009-0.204,0.023-0.31,0.026v28.396l9.16,13.749
		c0.562,0.848,0.867,1.842,0.867,2.857v40.126c0,1.016-0.305,2.012-0.867,2.856l-6.902,10.354l39.967,21.813V356.629
		L1067.953,367.511z M1034.987,389.493c-0.064,0.017-0.133,0.026-0.197,0.04c-0.127,0.026-0.256,0.052-0.385,0.068
		c0.129-0.017,0.258-0.042,0.385-0.068C1034.854,389.519,1034.922,389.51,1034.987,389.493c0.125-0.03,0.244-0.068,0.365-0.108
		C1035.231,389.425,1035.112,389.463,1034.987,389.493z M1035.551,389.321c0.115-0.043,0.227-0.095,0.338-0.146
		C1035.778,389.226,1035.666,389.278,1035.551,389.321z M1036.885,388.578c-0.094,0.073-0.188,0.147-0.287,0.213
		c-0.064,0.042-0.133,0.077-0.197,0.116c-0.104,0.062-0.205,0.125-0.311,0.179c0.105-0.054,0.207-0.116,0.311-0.179
		c0.064-0.039,0.133-0.074,0.197-0.116C1036.698,388.725,1036.791,388.651,1036.885,388.578c0.061-0.046,0.125-0.088,0.184-0.137
		C1037.01,388.49,1036.946,388.532,1036.885,388.578z"/>
	<path fill="#ECECEC" d="M940.233,308.297l8.919,5.354l12.797-4.265c1.205-0.406,2.51-0.341,3.66,0.151l28.697,12.309l1.506-13.55"
		/>
</g>
<g id="Velsen">
	<path fill="#9A0906" d="M835.941,705.074c-0.063-0.031-0.123-0.072-0.185-0.107c-0.075-0.041-0.148-0.084-0.221-0.129
		c-0.064-0.041-0.131-0.076-0.192-0.119c-0.061-0.041-0.114-0.088-0.172-0.131c-0.104-0.076-0.21-0.148-0.308-0.232
		c0.018,0.015,0.036,0.026,0.055,0.038c-0.018-0.013-0.037-0.022-0.054-0.038L719.554,604.051c-0.073-0.062-0.128-0.139-0.197-0.204
		c-0.001-0.002-0.004-0.003-0.005-0.005c-0.095-0.094-0.188-0.188-0.274-0.287c-0.062-0.07-0.133-0.137-0.19-0.209
		c-0.055-0.07-0.095-0.146-0.146-0.217c-0.076-0.109-0.151-0.217-0.22-0.33c-0.045-0.076-0.09-0.149-0.131-0.226
		c-0.004-0.008-0.01-0.015-0.014-0.022c-0.008-0.016-0.014-0.031-0.021-0.047c-0.031-0.065-0.06-0.133-0.09-0.199
		c-0.052-0.109-0.102-0.221-0.145-0.334c0.014,0.037,0.032,0.073,0.049,0.11c-0.013-0.03-0.027-0.06-0.039-0.089
		c-0.003-0.008-0.007-0.016-0.01-0.023c-0.001-0.002-0.001-0.005-0.002-0.008c-0.034-0.092-0.066-0.183-0.095-0.273
		c-0.005-0.018-0.009-0.036-0.014-0.055c0.004,0.018,0.008,0.035,0.013,0.053c-0.027-0.09-0.048-0.18-0.07-0.27
		c-0.027-0.107-0.057-0.215-0.076-0.324c-0.02-0.105-0.031-0.207-0.043-0.312c-0.013-0.098-0.021-0.195-0.026-0.295
		c-0.004-0.078-0.01-0.157-0.013-0.236c-0.001-0.021-0.004-0.043-0.004-0.064c0-0.109,0.011-0.217,0.017-0.326
		c0.007-0.109,0.015-0.217,0.029-0.324c0.001-0.008,0.002-0.016,0.004-0.023c0-0.001,0-0.003,0-0.004
		c-0.002,0.008-0.004,0.017-0.005,0.025c0.01-0.088,0.014-0.174,0.029-0.262c-0.006,0.04-0.008,0.079-0.011,0.118
		c0.002-0.02,0.004-0.039,0.006-0.059c0.002-0.021,0.002-0.04,0.006-0.06c0.004-0.022,0.012-0.045,0.018-0.068
		c0.002-0.011,0.005-0.021,0.008-0.032c-0.01,0.034-0.021,0.067-0.027,0.103c0.02-0.111,0.055-0.217,0.08-0.326
		c0.03-0.121,0.062-0.242,0.101-0.361c0.002-0.007,0.005-0.013,0.007-0.02c0-0.001,0-0.001,0-0.001
		c-0.002,0.006-0.005,0.013-0.007,0.019c0.013-0.039,0.024-0.079,0.035-0.119c0.007-0.03,0.015-0.061,0.025-0.09
		c0.008-0.021,0.02-0.041,0.03-0.062c0.035-0.078,0.073-0.155,0.108-0.233c0.002-0.005,0.004-0.01,0.006-0.016
		c0.058-0.127,0.115-0.254,0.184-0.377c0.002-0.004,0.003-0.005,0.004-0.007c0.029-0.055,0.048-0.112,0.08-0.165l12.973-21.629
		l-31.237-31.266l-77.702-19.436l-23.927,4.797c-0.04,0.008-0.081,0.005-0.122,0.012c0.001,0,0.001,0,0.002,0
		c-0.005,0-0.01,0-0.015,0.001c-0.216,0.038-0.435,0.062-0.654,0.07c-0.024,0.001-0.049,0.004-0.073,0.005c-0.003,0-0.007,0-0.011,0
		c0.003,0,0.006,0,0.01,0c-0.05,0.002-0.102,0.01-0.152,0.01c-0.286,0-0.572-0.032-0.859-0.081c-0.01-0.002-0.02-0.003-0.028-0.005
		c-0.012-0.002-0.023-0.006-0.035-0.009c-0.185-0.033-0.367-0.075-0.549-0.129c-0.02-0.006-0.039-0.011-0.058-0.018
		c-0.041-0.013-0.08-0.032-0.121-0.047c-0.114-0.038-0.225-0.085-0.336-0.131c-0.104-0.042-0.211-0.073-0.313-0.122l-55.316-27.671
		l-30.136,68.915l66.157-20.683c0.9-0.277,1.866-0.311,2.792-0.08l20.059,5.023c0.591,0.149,1.137,0.396,1.621,0.721
		c1.452,0.975,2.35,2.65,2.275,4.48c-0.096,2.439-1.891,4.471-4.299,4.873l-8.695,1.449l7.11,10.67
		c0.858,1.293,1.092,2.902,0.634,4.385c-0.463,1.479-1.564,2.674-3.002,3.254l-41.931,16.785l17.389,13.92h0l0.003,0.003
		c1.723,0.83,2.909,2.596,2.909,4.634c0,0.9-0.249,1.748-0.672,2.485c-0.024,0.042-0.053,0.081-0.079,0.123
		c-0.063,0.104-0.126,0.207-0.196,0.306c-0.069,0.098-0.146,0.189-0.221,0.281c-0.032,0.039-0.06,0.08-0.092,0.118
		c-0.995,1.153-2.465,1.877-3.987,1.839c-0.039,0-0.076-0.006-0.115-0.008c0.005,0,0.011-0.001,0.017-0.001
		c-0.005,0-0.01-0.001-0.015-0.001c-0.143,0-0.285-0.021-0.428-0.033c-0.091-0.01-0.181-0.019-0.271-0.029
		c-0.018-0.003-0.035-0.003-0.053-0.006c-0.184-0.027-0.364-0.066-0.542-0.109c-0.06-0.016-0.119-0.036-0.179-0.055
		c-0.071-0.021-0.143-0.041-0.214-0.064c-0.125-0.043-0.25-0.082-0.372-0.135c-0.006-0.003-0.012-0.006-0.019-0.009
		c0.006,0.003,0.011,0.006,0.017,0.009c-0.27-0.115-0.535-0.25-0.794-0.424c0.016,0.011,0.034,0.017,0.05,0.026
		c-0.007-0.005-0.015-0.009-0.023-0.014c-0.009-0.006-0.019-0.009-0.028-0.015l-16.275-10.855l3.384,8.463
		c0.664,0.871,1.062,1.955,1.062,3.133c0,1.883-1.006,3.379-2.516,4.271c-0.086,0.059-0.161,0.127-0.251,0.18
		c-0.184,0.106-0.372,0.199-0.562,0.279c-0.57,0.239-1.166,0.363-1.761,0.395c0.009-0.001,0.017-0.003,0.025-0.004
		c-0.007,0-0.015,0.002-0.022,0.002c-0.055,0.006-0.104,0.021-0.158,0.027c0,0-0.001,0-0.002,0s0,0-0.001,0
		c-0.03,0-0.06-0.006-0.089-0.008c-0.102,0-0.202-0.011-0.303-0.017c-0.089-0.005-0.179-0.005-0.268-0.015
		c-0.097-0.012-0.191-0.033-0.287-0.05c-0.092-0.016-0.185-0.026-0.276-0.048c-0.371-0.086-0.733-0.214-1.082-0.377
		c0.006,0.003,0.013,0.004,0.019,0.006c-0.005-0.002-0.01-0.004-0.015-0.006c-0.021-0.01-0.04-0.02-0.061-0.027
		c-0.153-0.076-0.307-0.146-0.453-0.236c0,0-0.001-0.001-0.002-0.002c0,0,0,0-0.001,0c-0.209-0.129-0.411-0.273-0.603-0.432
		c-0.043-0.035-0.084-0.074-0.126-0.111c-0.209-0.186-0.409-0.385-0.589-0.609l-18.511-23.146H473.94
		c1.621,0.553,2.897,1.896,3.33,3.627l15.042,60.189c0.104,0.408,0.155,0.824,0.155,1.248v16.04l56.26,14.079
		c0.362,0.092,0.714,0.223,1.05,0.389l90.244,45.135c0.092,0.046,0.176,0.103,0.264,0.154c0.015,0.009,0.03,0.017,0.045,0.026
		c0.076,0.045,0.157,0.085,0.23,0.134c0.026,0.018,0.049,0.037,0.074,0.055c0.144,0.1,0.284,0.205,0.417,0.318
		c0.031,0.027,0.061,0.057,0.091,0.084c0.057,0.053,0.114,0.102,0.168,0.154c0.004,0.004,0.009,0.008,0.013,0.012
		c0.052,0.052,0.102,0.104,0.151,0.158c0.005,0.005,0.011,0.01,0.016,0.016c0.034,0.035,0.065,0.074,0.098,0.111
		c0.099,0.115,0.193,0.232,0.283,0.354c0.021,0.029,0.045,0.059,0.065,0.09c0.007,0.011,0.014,0.021,0.021,0.033
		c0.001,0.003,0.003,0.005,0.005,0.008c0,0.001,0.001,0.003,0.002,0.004l0.002,0.004l0.004,0.006
		c-0.001-0.002-0.002-0.004-0.003-0.006c0.002,0.004,0.004,0.008,0.006,0.012c0.078,0.113,0.151,0.232,0.218,0.352
		c0.033,0.059,0.065,0.115,0.096,0.176c0.005,0.011,0.01,0.022,0.016,0.033c0.037,0.072,0.074,0.144,0.107,0.219
		c0.012,0.025,0.021,0.053,0.032,0.082c0,0,0,0.001,0,0.001c0.004,0.009,0.007,0.018,0.011,0.026
		c-0.001-0.005-0.005-0.01-0.007-0.015c0.002,0.005,0.004,0.009,0.006,0.015c0.027,0.066,0.057,0.133,0.083,0.201
		c0.045,0.121,0.083,0.246,0.118,0.371c0.021,0.072,0.042,0.143,0.061,0.213c0,0.003,0.001,0.006,0.002,0.008
		c0-0.002-0.001-0.004-0.001-0.006c0.007,0.029,0.018,0.059,0.024,0.09l4.928,22.188l3.939,17.734l3.416,1.707
		c0.009,0.004,0.02,0.008,0.028,0.012l5.426,2.715l32.782-65.605c0.068-0.137,0.161-0.254,0.24-0.383
		c0.086-0.141,0.165-0.289,0.263-0.418c0.088-0.117,0.193-0.217,0.29-0.326c0.129-0.145,0.253-0.291,0.396-0.418
		c0.083-0.072,0.177-0.133,0.265-0.201c0.18-0.141,0.359-0.277,0.556-0.393c0.066-0.039,0.138-0.066,0.206-0.104
		c0.236-0.125,0.478-0.236,0.729-0.324c0.012-0.004,0.021-0.01,0.032-0.014c0.036-0.014,0.072-0.016,0.108-0.025
		c0.271-0.084,0.546-0.15,0.829-0.189c0.074-0.01,0.146-0.012,0.222-0.018c0.251-0.023,0.502-0.035,0.757-0.02
		c0.102,0.006,0.199,0.021,0.3,0.033c0.218,0.025,0.435,0.057,0.651,0.113c0.15,0.037,0.293,0.09,0.439,0.143
		c0.116,0.041,0.234,0.062,0.35,0.111l35.097,15.043l15.865,10.479c0.011,0.008,0.021,0.018,0.031,0.023
		c0.125,0.086,0.24,0.184,0.357,0.277c0.057,0.047,0.116,0.09,0.172,0.139c0.025,0.023,0.055,0.043,0.082,0.068
		c0.029,0.027,0.057,0.057,0.086,0.086c0.048,0.047,0.09,0.098,0.135,0.148c0.005,0.005,0.01,0.011,0.015,0.016
		c0.007,0.007,0.013,0.015,0.02,0.021c0.08,0.083,0.163,0.164,0.234,0.252c0.017,0.02,0.029,0.041,0.044,0.061
		c0.033,0.041,0.063,0.085,0.094,0.128c0.015,0.021,0.031,0.042,0.046,0.063c0.003,0.003,0.005,0.006,0.008,0.01
		c0.003,0.006,0.008,0.012,0.011,0.018c0.014,0.02,0.026,0.038,0.04,0.058c0.019,0.026,0.038,0.052,0.055,0.079
		c0.005,0.007,0.01,0.013,0.014,0.02c0.001,0.003,0.003,0.006,0.004,0.008c0.05,0.077,0.097,0.155,0.145,0.235
		c0.002,0.004,0.005,0.007,0.007,0.011c0.021,0.039,0.048,0.074,0.068,0.113c0.004,0.007,0.006,0.015,0.009,0.021
		c0.023,0.044,0.044,0.09,0.065,0.136c0.003,0.007,0.007,0.014,0.011,0.021c0.002,0.004,0.003,0.008,0.005,0.012
		c0.029,0.057,0.06,0.111,0.087,0.169c0.004,0.009,0.009,0.016,0.013,0.024c0.003,0.008,0.005,0.016,0.008,0.023
		c0.035,0.083,0.062,0.169,0.092,0.254c0.002,0.005,0.004,0.009,0.006,0.014c0.02,0.051,0.046,0.098,0.064,0.15l3.841,11.514h11.332
		c1.774,0,3.376,0.905,4.31,2.325c0.312,0.475,0.55,1.006,0.694,1.581l0.451,1.812l1.803,7.23l16.986-18.127l16.982-18.122
		l0.028-0.031l0.007-0.008c0.005-0.006,0.013-0.012,0.018-0.018l0.08-0.084c0.121-0.131,0.259-0.244,0.393-0.359
		c0.061-0.053,0.113-0.111,0.175-0.16c0.051-0.039,0.104-0.074,0.155-0.111c0.066-0.047,0.135-0.088,0.202-0.131
		c0.121-0.08,0.235-0.168,0.362-0.238l46.491-25.373L835.941,705.074z M752.03,752.439c-0.014-0.018-0.024-0.035-0.039-0.053
		c0.016,0.02,0.028,0.041,0.045,0.061C752.033,752.445,752.031,752.443,752.03,752.439z"/>
</g>
<g id="Heemskerk">
	<path fill="#ECECEC" d="M731.304,444.822c0.051-0.017,0.102-0.033,0.154-0.049c0.097-0.029,0.191-0.06,0.29-0.083
		c0.075-0.02,0.152-0.03,0.229-0.045c0.08-0.017,0.159-0.03,0.24-0.042c0.063-0.009,0.129-0.022,0.194-0.029
		c0.104-0.011,0.209-0.014,0.314-0.019c0.057-0.003,0.114-0.01,0.172-0.01c0.116-0.001,0.23,0.007,0.347,0.013
		c0.094,0.005,0.188,0.005,0.281,0.016c0.019,0.002,0.037,0.004,0.056,0.006c0.021,0.002,0.042,0.008,0.063,0.012
		c0.206,0.026,0.411,0.067,0.613,0.12c0.021,0.006,0.044,0.008,0.065,0.014c0.056,0.015,0.107,0.037,0.162,0.054
		c0.151,0.047,0.301,0.101,0.447,0.161c0.056,0.022,0.111,0.046,0.166,0.071c0.057,0.025,0.116,0.045,0.172,0.073l10.028,5.009
		c0.49,0.248,0.945,0.573,1.337,0.967l24.127,24.132l33.795,9.661c2.212,0.634,3.736,2.655,3.736,4.953v10.691l22.326,3.727
		l4.416-7.364v-12.304h0.001v12.302l8.818-14.706c0.062-0.101,0.141-0.188,0.207-0.284c0.069-0.099,0.135-0.199,0.21-0.293
		c0.037-0.045,0.067-0.097,0.106-0.141c0.016-0.02,0.034-0.036,0.051-0.056c0.088-0.1,0.188-0.182,0.282-0.272
		c0.078-0.075,0.149-0.152,0.231-0.222c0.024-0.021,0.046-0.042,0.069-0.063c0.009-0.009,0.017-0.018,0.027-0.025
		c0.016-0.013,0.033-0.023,0.049-0.034c0.011-0.007,0.022-0.014,0.033-0.023c0.128-0.1,0.265-0.183,0.4-0.27
		c0.073-0.046,0.14-0.101,0.215-0.144c0.022-0.013,0.043-0.028,0.065-0.041c0.035-0.02,0.075-0.03,0.111-0.049
		c0.167-0.086,0.338-0.155,0.512-0.222c0.074-0.029,0.143-0.07,0.219-0.096l5.454-1.823l-26.878-19.203
		c-0.685-0.488-1.239-1.138-1.616-1.888l-5.009-10.021c-0.785-1.576-0.712-3.447,0.192-4.955l8.332-13.895l-22.563,6.446
		c-0.069,0.02-0.139,0.021-0.208,0.036c0.004-0.001,0.008-0.002,0.012-0.003c-0.002,0-0.005,0.001-0.007,0.001
		c-0.001,0-0.001,0-0.002,0c-0.227,0.053-0.455,0.097-0.682,0.119c-0.07,0.007-0.141,0.013-0.21,0.017c0,0,0,0-0.001,0l0,0
		c-0.104,0.007-0.209,0.025-0.313,0.025h0h0c-0.175,0-0.346-0.023-0.518-0.041c-0.025-0.002-0.05-0.003-0.074-0.006
		c-0.944-0.11-1.831-0.478-2.574-1.057c-0.035-0.027-0.066-0.058-0.102-0.084c0.035,0.026,0.066,0.057,0.102,0.084
		c0.106,0.082,0.221,0.15,0.333,0.224c-0.111-0.073-0.226-0.142-0.332-0.224c-0.035-0.027-0.066-0.057-0.102-0.084
		c-0.199-0.164-0.387-0.344-0.561-0.537c-0.044-0.049-0.087-0.097-0.129-0.146c-0.16-0.193-0.304-0.397-0.436-0.617
		c-0.034-0.055-0.071-0.105-0.104-0.163c-0.152-0.275-0.289-0.564-0.393-0.875l-10.015-30.097c-0.196-0.596-0.281-1.224-0.253-1.848
		c0.009-0.208,0.031-0.416,0.065-0.623l1.11-6.671l-0.416-2.501l-0.695-4.174c-0.182-1.069-0.018-2.171,0.472-3.147l3.41-6.819
		v-0.001l0.001-0.003l0.187-1.124l0.939-5.645c0.104-0.64,0.332-1.246,0.664-1.806l2.069-3.451l-2.069,3.45l5.52-9.204
		l-56.179-13.229l-161.348-4.756L558.298,452.04l39.713,22.067l62.921-24.214c0.754-0.281,1.575-0.388,2.365-0.316l48.645,4.877
		l18.721-9.368c0.007-0.003,0.015-0.006,0.021-0.009c0.1-0.049,0.204-0.088,0.307-0.131
		C731.094,444.903,731.197,444.859,731.304,444.822z M804.349,434.618c-0.228,0.053-0.455,0.098-0.682,0.119
		C803.894,434.716,804.122,434.671,804.349,434.618z"/>
</g>
<g id="Beverwijk">
	<path fill="#ECECEC" d="M621.667,514.856c0.375-0.072,0.755-0.106,1.134-0.098c0.379,0.008,0.756,0.058,1.124,0.152l80.21,20.062
		c0.912,0.227,1.736,0.694,2.396,1.352l35.086,35.116c1.67,1.67,1.991,4.266,0.774,6.291l-12.595,21.004l27.505,19.65l3.455-3.803
		l41.17-45.314l1.146-2.865v-3.09v3.09l1.147-2.869l3.91-19.561c0.007-0.035,0.022-0.068,0.029-0.104
		c0.003-0.006,0.004-0.012,0.006-0.02c0.027-0.125,0.06-0.25,0.098-0.375c0.019-0.061,0.038-0.121,0.059-0.182
		c0.022-0.062,0.043-0.127,0.067-0.189c0.002-0.004,0.003-0.01,0.005-0.014c0.008-0.021,0.013-0.045,0.022-0.066
		c0.079-0.191,0.172-0.379,0.274-0.561c0.003-0.006,0.004-0.012,0.008-0.018c0.002-0.003,0.003-0.005,0.004-0.008
		s0.002-0.007,0.004-0.01l0.007-0.012c0.005-0.01,0.009-0.02,0.014-0.029l0.048-0.082v-0.119v0.119l0.061-0.104l16.263-28.457
		l-6.522-1.089l-16.28-2.717c-0.528-0.087-1.017-0.269-1.474-0.5c-1.691-0.857-2.829-2.599-2.829-4.58v-11.168l-31.343-8.957
		c-0.004-0.001-0.009-0.004-0.013-0.005c-0.003,0-0.005-0.002-0.008-0.003c0.006,0.002,0.013,0.006,0.02,0.008
		c-0.073-0.021-0.142-0.052-0.214-0.076c-0.078-0.025-0.156-0.052-0.231-0.082c0.075,0.03,0.153,0.057,0.231,0.082
		c0.004,0.001,0.008,0.002,0.012,0.003c-0.004-0.001-0.008-0.003-0.012-0.004c-0.078-0.026-0.155-0.052-0.231-0.082
		c-0.037-0.014-0.07-0.033-0.106-0.048c0.036,0.016,0.069,0.035,0.105,0.049c-0.176-0.067-0.344-0.146-0.51-0.231
		c-0.036-0.02-0.072-0.035-0.107-0.056c-0.001-0.001-0.003-0.002-0.004-0.002c-0.022-0.011-0.045-0.022-0.066-0.034
		c-0.007-0.003-0.014-0.006-0.02-0.01c-0.007-0.004-0.015-0.007-0.021-0.011c-0.251-0.147-0.491-0.322-0.72-0.517
		c-0.013-0.011-0.027-0.018-0.039-0.028l-32.503-27.859l-16.998,8.504l11.334-5.671l-11.334,5.67
		c-0.653,0.329-1.356,0.502-2.083,0.534c-0.242,0.011-0.487,0.006-0.733-0.014l-48.909-4.904l-64.023,24.642
		c-0.534,0.204-1.093,0.316-1.653,0.338c-0.021,0-0.042-0.001-0.062-0.001c-0.912,0.024-1.824-0.189-2.635-0.644l-39.904-22.173
		l-11.213,29.927l30.58,13.116l23.974,14.336L621.667,514.856z"/>
</g>
</svg>
